<svg width="39" height="40" viewBox="0 0 39 40" fill="none" xmlns="http://www.w3.org/2000/svg">
<g id="close-small">
<path id="Vector (Stroke)" fill-rule="evenodd" clip-rule="evenodd" d="M10.1559 10.8283C10.7864 10.1861 11.8085 10.1861 12.439 10.8283L19.3695 17.8886L26.3 10.8283C26.9304 10.1861 27.9526 10.1861 28.5831 10.8283C29.2135 11.4706 29.2135 12.5119 28.5831 13.1542L21.6526 20.2144L28.5831 27.2747C29.2135 27.917 29.2135 28.9583 28.5831 29.6006C27.9526 30.2428 26.9304 30.2428 26.3 29.6006L19.3695 22.5403L12.439 29.6006C11.8085 30.2428 10.7864 30.2428 10.1559 29.6006C9.52543 28.9583 9.52543 27.917 10.1559 27.2747L17.0864 20.2144L10.1559 13.1542C9.52543 12.5119 9.52543 11.4706 10.1559 10.8283Z" fill="#FF3B30" stroke="#FF3B30" stroke-width="2" stroke-linecap="round" stroke-linejoin="round"/>
</g>
</svg>
